<svg class="changecolor" width="41" height="44" viewBox="0 0 41 44" fill="rgba(81, 24, 144,.7)" xmlns="http://www.w3.org/2000/svg">
<path d="M20.5024 5.36572C10.9175 5.36203 3.1543 12.7587 3.1543 21.8882C3.1543 29.1075 8.01068 35.2443 14.774 37.498C15.6848 37.716 15.5452 37.099 15.5452 36.6778V33.8145C10.2858 34.4019 10.0726 31.0841 9.71991 30.5299C9.00676 29.3698 7.32078 29.0742 7.82464 28.5201C9.02226 27.9326 10.2431 28.6678 11.6578 30.6593C12.681 32.1039 14.6771 31.86 15.6886 31.6199C15.9096 30.7516 16.3824 29.9757 17.0335 29.3735C11.5842 28.4425 9.31295 25.2725 9.31295 21.5039C9.31295 19.6751 9.9447 17.994 11.185 16.6381C10.3943 14.4028 11.2586 12.489 11.3749 12.2045C13.6267 12.0124 15.9677 13.7415 16.1499 13.8782C17.4289 13.5494 18.8901 13.3757 20.5256 13.3757C22.169 13.3757 23.634 13.5567 24.9247 13.8893C25.3626 13.5715 27.5331 12.0863 29.626 12.2673C29.7384 12.5518 30.5834 14.4213 29.8392 16.627C31.095 17.9866 31.7345 19.6825 31.7345 21.515C31.7345 25.2909 29.4477 28.4646 23.9829 29.3809C24.4509 29.8197 24.8226 30.343 25.0761 30.9203C25.3297 31.4976 25.46 32.1172 25.4595 32.743V36.8995C25.4905 37.232 25.4595 37.5608 26.0409 37.5608C32.905 35.3551 37.8466 29.174 37.8466 21.8919C37.8466 12.7587 30.0795 5.36572 20.5024 5.36572Z"/>
</svg>
