<svg width="49" height="45" viewBox="0 0 49 45" fill=" rgba(81, 24, 144,.7)" xmlns="http://www.w3.org/2000/svg">
<path d="M39.8125 5.97656H9.1875C8.47705 5.97731 7.79593 6.23682 7.29357 6.69818C6.79121 7.15953 6.50862 7.78505 6.50781 8.4375V36.5625C6.50862 37.215 6.79121 37.8405 7.29357 38.3018C7.79593 38.7632 8.47705 39.0227 9.1875 39.0234H39.8125C40.5229 39.0227 41.2041 38.7632 41.7064 38.3018C42.2088 37.8405 42.4914 37.215 42.4922 36.5625V8.4375C42.4914 7.78505 42.2088 7.15953 41.7064 6.69818C41.2041 6.23682 40.5229 5.97731 39.8125 5.97656ZM40.1953 36.5625C40.1952 36.6557 40.1548 36.7451 40.0831 36.811C40.0113 36.8769 39.914 36.914 39.8125 36.9141H9.1875C9.086 36.914 8.98869 36.8769 8.91692 36.811C8.84515 36.7451 8.80479 36.6557 8.80469 36.5625V8.4375C8.80479 8.34429 8.84515 8.25492 8.91692 8.18901C8.98869 8.1231 9.086 8.08603 9.1875 8.08594H39.8125C39.914 8.08603 40.0113 8.1231 40.0831 8.18901C40.1548 8.25492 40.1952 8.34429 40.1953 8.4375V36.5625ZM17.9922 19.6877V30.9377C17.9922 31.2174 17.8712 31.4857 17.6558 31.6835C17.4404 31.8812 17.1483 31.9924 16.8438 31.9924C16.5392 31.9924 16.2471 31.8812 16.0317 31.6835C15.8163 31.4857 15.6953 31.2174 15.6953 30.9377V19.6877C15.6953 19.408 15.8163 19.1397 16.0317 18.9419C16.2471 18.7441 16.5392 18.633 16.8438 18.633C17.1483 18.633 17.4404 18.7441 17.6558 18.9419C17.8712 19.1397 17.9922 19.408 17.9922 19.6877ZM34.8359 24.6096V30.9377C34.8359 31.2174 34.7149 31.4857 34.4996 31.6835C34.2842 31.8812 33.9921 31.9924 33.6875 31.9924C33.3829 31.9924 33.0908 31.8812 32.8754 31.6835C32.6601 31.4857 32.5391 31.2174 32.5391 30.9377V24.6096C32.5391 23.5839 32.0954 22.6003 31.3057 21.875C30.516 21.1498 29.4449 20.7424 28.3281 20.7424C27.2113 20.7424 26.1402 21.1498 25.3505 21.875C24.5608 22.6003 24.1172 23.5839 24.1172 24.6096V30.9377C24.1172 31.2174 23.9962 31.4857 23.7808 31.6835C23.5654 31.8812 23.2733 31.9924 22.9688 31.9924C22.6642 31.9924 22.3721 31.8812 22.1567 31.6835C21.9413 31.4857 21.8203 31.2174 21.8203 30.9377V19.6877C21.8203 19.408 21.9413 19.1397 22.1567 18.9419C22.3721 18.7441 22.6642 18.633 22.9688 18.633C23.2733 18.633 23.5654 18.7441 23.7808 18.9419C23.9962 19.1397 24.1172 19.408 24.1172 19.6877V20.058C25.063 19.3184 26.2198 18.843 27.4505 18.6882C28.6813 18.5334 29.9347 18.7055 31.0622 19.1843C32.1898 19.6631 33.1445 20.4285 33.8132 21.39C34.482 22.3514 34.8369 23.4687 34.8359 24.6096ZM18.7578 14.0625C18.7578 14.4102 18.6456 14.75 18.4352 15.0391C18.2249 15.3282 17.926 15.5535 17.5762 15.6865C17.2265 15.8196 16.8416 15.8544 16.4703 15.7865C16.099 15.7187 15.758 15.5513 15.4903 15.3055C15.2226 15.0596 15.0403 14.7464 14.9665 14.4054C14.8926 14.0645 14.9305 13.711 15.0754 13.3898C15.2203 13.0686 15.4656 12.7941 15.7804 12.6009C16.0951 12.4078 16.4652 12.3047 16.8438 12.3047C17.3512 12.3052 17.8377 12.4906 18.1966 12.8201C18.5554 13.1496 18.7573 13.5965 18.7578 14.0625Z"/>
</svg>
